<?xml version="1.0" encoding="UTF-8"?>
<svg id="Layer_1" xmlns="http://www.w3.org/2000/svg" version="1.1" viewBox="0 0 500 169.43">
  <!-- Generator: Adobe Illustrator 30.6.0, SVG Export Plug-In . SVG Version: 2.1.4 Build 109)  -->
  <g>
    <path d="M149.46,107.16l14.68-.02c-4.1,15.25-12.29,29.1-23.6,39.79-33.15,31.35-85.54,29.7-116.42-3.43l7.71-30.51,13.73.02-6.53,26.13c21.22,18.82,52.48,22.09,77.35,8.94l-17.62-34.03-15.07-29.19-46.48.04,4.52-18.63,6.3-25.38,53.9.15c16.45.04,29.18,13.8,30.06,29.96.7,12.78-5.58,24.41-16.02,31.76l-6.47-12.32c7.73-5.65,11.04-15.41,8.04-24.56-2.13-6.5-8.08-11.7-15.27-11.74l-44.38-.2-4.63,19.14,39.49.02,27,51.68,7.97,15.42c10.37-8.83,17.61-20.1,21.7-33.03Z"/>
    <path d="M14.67,92.93h64.13s6.43,12.79,6.43,12.79l-82.13.02c-2.32-9.79-3.74-19.58-2.81-29.7,1.64-17.84,9.08-34.37,20.83-47.7C43.34,3.11,78.54-6.4,110.48,4.4c26.92,9.11,47.57,31.78,54.24,59.56l-14.71.06c-5.59-20.17-19.86-36.62-38.84-44.86C71.86,2.1,26.62,24.76,15.96,66.12c-2.24,8.68-3,17.66-1.28,26.81Z"/>
  </g>
  <g>
    <path d="M435.43,94.85c-9.25,1.11-17.16-4.87-19.62-13.6-2.18-7.74-1.12-16,3.87-22.26,6.55-8.01,18.81-9.04,25.69-.93l.04-23.72,11.79-.07v59.61s-10.99.1-10.99.1l-.53-5.13c-2.69,3.36-5.79,5.45-10.26,5.99ZM445.06,68.67c-1-3.99-4.41-6.35-8.11-6.51s-7.33,1.77-8.93,5.51c-1.77,4.13-1.77,8.87.41,12.9,1.82,3.37,5.53,4.98,9.36,4.44,7.42-1.04,9.08-9.14,7.26-16.34Z"/>
    <path d="M359.54,86.32c-4.7,7.59-13.52,10.56-21.57,7.52-2.59-.98-4.38-2.82-6.33-4.73l-.12,4.74-10.9.15v-59.61s11.8-.07,11.8-.07l.04,23.78c3.83-4.39,8.79-6.19,14.43-5.44,6.11.81,10.74,4.66,13.73,10.14,3.53,7.35,3.36,16.35-1.08,23.53ZM350.1,79.08c1.61-4.35,1.41-9.19-1.07-12.83-2.1-3.09-5.42-4.45-8.98-4.03-3.01.36-6.16,2.44-7.17,5.82-1.1,3.69-1.22,8.04.07,11.71s5.23,5.62,8.94,5.45c3.49-.16,6.82-2.37,8.21-6.12Z"/>
    <path d="M216.96,82.2c7.79,3.56,16.26,2.24,23.13-3.03l4.83,9.64c-7.63,6.14-18.37,7.58-27.72,5.7-14.13-2.84-23.45-14.85-23.72-29.09-.32-16.98,11.96-30.9,29.07-31.98,8.03-.45,15.99,1.53,22.65,6.59l-5.23,9.86c-3.77-3.03-7.95-4.61-12.63-5.06-5.51-.46-11.13,1.23-15.07,5.21-8.67,8.76-7.32,26.14,4.7,32.15Z"/>
    <path d="M285.71,53.5v40.38s-10.91.1-10.91.1l-.66-5.07c-5.61,7.07-15.97,8.19-22.79,2.41-3.01-2.54-3.85-6.35-4.45-10.14v-27.64s11.93-.03,11.93-.03l.05,24.19c.15,2.09.68,4,1.95,5.22,1.5,1.44,3.72,1.99,5.76,1.73,4.51-.58,7.22-3.86,7.22-8.21l-.02-22.94h11.93Z"/>
    <path d="M480.44,85.28c5.76.91,10.97-.12,16.48-2.71l1.76,8.28c-6.62,3.9-14.2,5.17-21.74,3.62-7.14-1.46-12.84-6.44-15.06-13.41-2.36-7.39-1.15-15.57,3.73-21.6,4.38-5.43,11.07-7.45,17.85-6.89,12.83,1.05,17.78,12.12,16.29,24.48l-27.11.02c.56,4.41,3.63,7.13,7.81,8.22ZM489.06,69.14c-.14-3.92-1.61-6.03-3.63-7.32-2.37-1.51-5.28-1.54-7.72-.45-3.12,1.38-4.77,4.44-5.23,7.86l16.57-.09Z"/>
    <path d="M394.27,87.38c-4.42,9.88-21.35,9.62-30.43,2.55l3.59-7.97c5.84,4.21,16.29,5.99,16.95,1.06.22-1.63-.88-3.22-2.52-3.87l-8.83-3.44c-3.72-1.45-6.47-4.78-7.08-8.56-1-6.2,2.15-11.72,8.12-13.64,6.67-2.14,14.05-.96,19.88,2.93l-3.16,7.93c-5.42-3.39-13.29-4.61-14.06-.3-.2,1.12.81,2.8,2.06,3.3l9.14,3.65c6.74,2.69,9.25,9.83,6.33,16.36Z"/>
    <path d="M303.25,93.84l-11.93.12-.02-40.44,11.48-.04.18,6.19c3.06-5.39,8.22-7.9,14-6.77l-.22,11.05c-1.94-.26-4.12-.48-6.24,0-3.78.86-7.15,4.28-7.16,8.3l-.08,21.58Z"/>
    <rect x="398.98" y="53.49" width="11.95" height="40.49"/>
    <circle cx="404.86" cy="41.05" r="7.04"/>
  </g>
  <g>
    <polygon points="280.06 137.85 275.63 137.91 260.85 115.81 260.8 137.87 256.27 137.89 256.29 108.33 261.04 108.35 275.42 129.72 275.55 108.31 280.03 108.32 280.06 137.85"/>
    <path d="M212.44,137.99l-6.29-11.35-5.46-.1-.03,11.32-4.49.04v-29.6s12.18.12,12.18.12c5.84.06,9.51,5.47,8.32,10.96-.69,3.19-2.73,5.67-6.08,6.36l7.02,12.05-5.17.19ZM207.44,122.59c3.21-.07,4.84-3.02,4.59-5.61s-2.33-4.51-5.23-4.48l-6.14.05.04,10.19,6.74-.14Z"/>
    <path d="M333.53,131.07l-13.22-.1-2.65,6.92-4.82.03,11.57-29.54,5.02-.04,11.34,29.44-4.91.24-2.32-6.94ZM331.77,126.8l-4.93-13.29-5.06,13.46,9.99-.17Z"/>
    <polygon points="244.69 124.85 232.13 124.88 232.1 133.8 245.95 133.77 246.1 137.9 227.48 137.97 227.49 108.29 245.87 108.28 245.89 112.5 232.12 112.5 232.09 120.81 244.58 120.75 244.69 124.85"/>
    <path d="M390.4,137.23c-5.51,2.35-11.64,1.14-16.11-2.67l2.28-4.15c3.15,3.4,7.5,4.88,11.68,3.13,1.42-.59,2.28-2.48,2.26-3.83-.03-1.58-1.32-2.93-2.95-3.59l-7.86-3.2c-3.34-1.36-4.54-4.92-4-8.38.48-3.02,2.95-5.61,6.34-6.32,4.46-.94,8.94-.06,12.38,2.92l-2.47,4.12c-2.73-2.95-6.32-4.14-9.75-2.58-1.28.58-2.06,2.19-1.95,3.43.1,1.17,1.03,2.62,2.29,3.12l6.68,2.64c3.38,1.33,5.77,3.68,5.96,7.08s-1.3,6.8-4.79,8.29Z"/>
    <polygon points="301.9 137.88 297.3 137.93 297.31 112.5 289.13 112.5 289.17 108.29 310.3 108.28 310.31 112.49 301.87 112.52 301.9 137.88"/>
    <polygon points="367.45 133.78 367.53 137.94 349.41 137.94 349.42 108.32 354.19 108.31 354.21 133.77 367.45 133.78"/>
  </g>
</svg>