<?xml version="1.0" encoding="UTF-8"?>
<svg id="Layer_1" xmlns="http://www.w3.org/2000/svg" version="1.1" viewBox="0 0 97.05 100">
  <!-- Generator: Adobe Illustrator 30.6.0, SVG Export Plug-In . SVG Version: 2.1.4 Build 109)  -->
  <defs>
    <style>
      .st0 {
        fill: #fff;
      }

      .st1 {
        fill: #101010;
      }

      .st2 {
        fill: #7DBE5E;
      }
    </style>
  </defs>
  <path class="st1" d="M97.05,98.4c0,.73-.55,1.59-1.02,1.59H1.41C.44,100,0,99.33,0,98.37L.1,12.06C.11,5.01,6.62,0,13.28,0l70.92.02c5.85,0,10.88,3.73,12.41,9.32l.43,2.85v86.21ZM7.53,20.21c-.85.97-1.07,1.92-.54,3.12h-3.99s-.02,9.22-.02,9.22h12.84s-.01-9.19-.01-9.19h2.75s.02,9.19.02,9.19h12.64s.04-9.21.04-9.21h2.79s.01,9.21.01,9.21h12.73s0-9.15,0-9.15l2.82-.07v9.23s12.95-.02,12.95-.02l.07-9.16h2.78s.04,9.19.04,9.19l12.56-.04.09-9.19h2.65s.11,9.22.11,9.22h13.08s.01-9.2.01-9.2l-5.23-.04c.47-1.07.31-2.07-.25-3.11h5.44s-.14-8.9-.14-8.9c-.4-4.44-3.92-8.05-8.21-8.05h-4.71s0,16.92,0,16.92h-2.8s-.05-17.03-.05-17.03l-12.53.08v16.98s-2.92,0-2.92,0l-.02-17.03h-12.89s-.02,17.04-.02,17.04h-2.85s-.05-17.06-.05-17.06h-12.63s-.05,17.02-.05,17.02h-2.83s0-17.03,0-17.03h-12.64s-.06,17.03-.06,17.03h-2.72s-.06-16.88-.06-16.88c-2.82-.5-5.53,0-8.26,1.15-1.12.47-1.6.92-2.23,2.02-1.07,1.88-2.25,3.9-2.25,6.17l-.02,7.57h4.53ZM2.99,35.48v11.84s90.99,0,90.99,0v-11.84s-90.99,0-90.99,0ZM2.99,50.31v20.03h91.07v-20.03H2.99ZM15.76,73.29l-12.76.02.02,8.9h4.03c-.41,1.11-.35,2.09.25,3.08H3s0,11.61,0,11.61l12.73-.03.03-11.54h2.75s.11,11.57.11,11.57l12.54-.03.07-11.53h2.85s.02,11.53.02,11.53h12.66s.03-11.57.03-11.57l2.84-.03.05,11.62h12.86s.1-11.58.1-11.58l2.84.02.03,11.55,12.49.02.08-11.55h2.71s.15,11.55.15,11.55l13.01-.02.03-11.65h-5.17c.19-.34.8-1.15.64-1.53l-.59-1.48,5.1.02.07-8.94-13.17.03.08,8.84h-2.83s-.07-8.9-.07-8.9l-12.54.05v8.76s-2.86.1-2.86.1l-.05-8.88h-12.95c-.88-.15-1.91-.15-2.79,0l-12.75.04-.02,8.83h-2.82s-.02-8.86-.02-8.86h-12.64c-.59-.89-2.12-.86-2.82-.02Z"/>
  <rect class="st0" x="2.99" y="50.31" width="91.07" height="20.03"/>
  <rect class="st0" x="42.56" y="-4.09" width="11.84" height="90.99" transform="translate(7.08 89.88) rotate(-90)"/>
  <path class="st2" d="M18.58,73.32l.03,8.91,12.62-.06h2.82s12.75.04,12.75.04h2.88s12.94-.03,12.94-.03l2.87-.1,12.6.09h2.83s7.93.04,7.93.04l.59,1.48c.16.37-.45,1.18-.64,1.53l-8.02.11h-2.71s-12.59,0-12.59,0l-2.84-.02-13-.04-2.84.03-12.71.03h-2.85s-12.71.02-12.71.02h-2.75s-8.48-.05-8.48-.05c-.6-.99-.66-1.97-.25-3.07l8.74-.16,2.46-.12-.06-3.04-2.34-.24-.08-5.37c.7-.84,2.23-.87,2.82.03Z"/>
  <path class="st2" d="M15.83,20.17h2.72s12.69,0,12.69,0h2.83s12.74.05,12.74.05h2.85s12.93-.01,12.93-.01h2.91s12.59-.03,12.59-.03h2.8s7.61.03,7.61.03c.56,1.04.71,2.04.25,3.11l-7.97.02h-2.65s-12.69.03-12.69.03h-2.78s-13.02-.04-13.02-.04l-2.82.07-12.75-.06h-2.79s-12.71.03-12.71.03h-2.75s-8.82-.04-8.82-.04c-.53-1.2-.31-2.15.54-3.12l8.3-.03Z"/>
  <polygon class="st0" points="62.58 20.21 49.65 20.22 49.67 3.18 62.56 3.18 62.58 20.21"/>
  <polygon class="st0" points="31.24 20.17 18.55 20.18 18.6 3.16 31.24 3.15 31.24 20.17"/>
  <polygon class="st0" points="46.8 20.22 34.06 20.18 34.11 3.17 46.75 3.16 46.8 20.22"/>
  <polygon class="st0" points="78.09 20.17 65.5 20.2 65.51 3.22 78.03 3.14 78.09 20.17"/>
  <path class="st0" d="M88.5,20.2l-7.61-.03V3.25s4.7,0,4.7,0c4.28,0,7.81,3.62,8.21,8.05l.14,8.9h-5.44Z"/>
  <path class="st0" d="M15.83,20.17l-8.3.03H3s.02-7.56.02-7.56c0-2.27,1.18-4.29,2.25-6.17.63-1.1,1.11-1.55,2.23-2.02,2.73-1.15,5.44-1.65,8.26-1.15l.06,16.87Z"/>
  <polygon class="st0" points="80.79 85.33 88.8 85.22 93.97 85.22 93.94 96.87 80.93 96.89 80.79 85.33"/>
  <polygon class="st0" points="62.64 85.3 62.54 96.89 49.69 96.89 49.64 85.27 62.64 85.3"/>
  <polygon class="st0" points="7.29 85.3 15.77 85.34 15.74 96.88 3.01 96.91 3 85.29 7.29 85.3"/>
  <polygon class="st0" points="46.79 85.3 46.77 96.89 34.1 96.87 34.09 85.34 46.79 85.3"/>
  <polygon class="st0" points="31.24 85.34 31.17 96.88 18.64 96.91 18.53 85.35 31.24 85.34"/>
  <polygon class="st0" points="78.08 85.34 78 96.89 65.51 96.88 65.48 85.32 78.08 85.34"/>
  <polygon class="st0" points="88.74 23.31 93.98 23.35 93.97 32.54 80.89 32.55 80.78 23.33 88.74 23.31"/>
  <polygon class="st0" points="62.66 23.37 62.58 32.54 49.62 32.56 49.63 23.32 62.66 23.37"/>
  <polygon class="st0" points="88.85 82.21 80.93 82.17 80.85 73.33 94.02 73.3 93.95 82.23 88.85 82.21"/>
  <polygon class="st0" points="31.27 23.33 31.22 32.55 18.58 32.54 18.56 23.36 31.27 23.33"/>
  <polygon class="st0" points="6.99 23.32 15.81 23.36 15.82 32.54 2.98 32.54 3 23.31 6.99 23.32"/>
  <polygon class="st0" points="46.81 23.39 46.8 32.54 34.07 32.54 34.06 23.33 46.81 23.39"/>
  <polygon class="st0" points="78.13 23.34 78.04 32.53 65.47 32.57 65.44 23.36 78.13 23.34"/>
  <polygon class="st0" points="62.62 82.18 49.69 82.21 49.68 77.63 49.62 73.31 62.58 73.3 62.62 82.18"/>
  <path class="st0" d="M46.83,73.3l.13,5.07-.14,1.72-.25.3s.18.34.22.43l.03,1.4-12.75-.05.02-8.83,12.75-.04Z"/>
  <polygon class="st0" points="15.76 73.29 15.83 78.66 15.78 82.06 7.04 82.23 3.01 82.22 2.99 73.31 15.76 73.29"/>
  <polygon class="st0" points="31.24 82.17 18.61 82.23 18.58 73.32 31.22 73.31 31.24 82.17"/>
  <polygon class="st0" points="78.09 82.17 65.49 82.08 65.48 73.32 78.02 73.28 78.09 82.17"/>
  <path class="st2" d="M49.62,73.31l.06,4.32-2.73.74-.13-5.07c.89-.14,1.91-.14,2.79.01Z"/>
  <path class="st1" d="M49.68,77.63v4.59s-2.87,0-2.87,0l-.03-1.4c.09.07.55-.4.4-.51l-.37-.22.14-1.72,2.73-.74Z"/>
  <polygon class="st1" points="15.78 82.06 15.83 78.66 18.18 78.9 18.24 81.94 15.78 82.06"/>
  <path class="st2" d="M46.78,80.82c-.05-.09-.24-.41-.22-.43l.25-.3.37.22c.15.11-.31.57-.4.51Z"/>
</svg>