<?xml version="1.0" encoding="UTF-8"?>
<svg id="Layer_1" xmlns="http://www.w3.org/2000/svg" version="1.1" viewBox="0 0 95.67 100">
  <!-- Generator: Adobe Illustrator 30.6.0, SVG Export Plug-In . SVG Version: 2.1.4 Build 109)  -->
  <defs>
    <style>
      .st0 {
        fill: #101010;
      }

      .st1 {
        fill: #7DBE5E;
      }
    </style>
  </defs>
  <g>
    <path class="st0" d="M94.43,90.06c-1.58-2.08-3.88-2.99-6.8-2.34-.8-1.47-2.73-6.61-2.73-6.61l-4.99-13c-.47-1.22-.74-2.21-1.19-3.47l-5.36-15-19.57,6.58-3.55-11.12c-.27-.83.37-3.2-3.82-4.58l-11.23-3.8-3.33-6.32c.26-4.92-3.15-9.65-8.06-10.19-4.2-.46-7.85,2.01-8.69,6l-4.74,22.37c-1.03,4.87-1.02,9.68,1.54,14.16l-3.32,12.61L.66,91.76c-1.33,2.76-.65,5.79,1.97,7.41,2.34,1.45,5.94.83,7.33-1.89l9.17-17.95.83-3.32c.46-1.81-.14-3.36-1.21-5.01,0-.86-.41-.45-.62.2l-2.04,7.49-8.84,17.25c-.56,1.09-2.22,1.17-3.14.63-.74-.44-1.52-1.73-1.06-2.73l8.04-17.24,3.45-11.41,9.59,9.83,5.98,21.82c.75,2.75,4.13,3.65,6.54,2.92,2.22-.68,4.42-3.29,3.76-6.03l-5.6-23.44-9.09-12.02c1.23-.53,1.52-1.18,1.69-2.26l1.77-11.1,13.89,3.91c1.73.46,3.12-.16,4.63-1.25l3.4,10.83,9.89,29.14c-3.35,1.12-4.92,3.86-4.61,6.84.29,2.76,2.41,5.17,5.38,5.51,2.33.26,4.45-.87,5.62-2.51,1.3-1.82,1.59-3.93.8-6.27l15.44.13c-1.34,3.18.15,6.66,2.98,8.05,2.98,1.46,6.34.3,8.15-2.53,1.37-2.15,1.06-4.85-.36-6.71ZM32.16,71.6l5.23,22.32c.39,1.65-.73,2.84-1.87,3.05-1.61.29-2.58-.71-2.99-2.26l-5.47-20.91-10.59-10.88c-1.97-2.03-3.3-4.33-3.24-7.33,3.32,1.15,6.58,1.94,10.28,2.49l-.56,1.78,9.21,11.75ZM44.19,46.17l-13.54-3.81-9.43-14.87c-.53-.02-1.42.27-1.67.6-.26.32-.34,1.18-.28,1.7l7.57,12.02-2.39,13.26c-4.05-.32-7.63-1.35-11.53-2.97l5.02-24.75c.37-1.84,1.94-3.65,3.71-4.01,3.21-.66,5.78,1.54,6.81,4.42l.75,3.85,3.91,7.36,11.57,3.83c.47.16.94,1.3,1.01,1.79.08.56-.87,1.77-1.5,1.59ZM62.55,96.85c-1.72,0-3.12-1.4-3.12-3.12s1.4-3.12,3.12-3.12,3.12,1.4,3.12,3.12-1.4,3.12-3.12,3.12ZM65.89,88.2c-.78.07-1.66-.62-1.85-1.29l-.8-2.77,5.93-1.37.88,3.54s.38,1.48-4.16,1.89ZM70.52,80.34l-7.55,1.81c-.2.07-.52-.37-.69-.63l-5.36-15.95-2.07-6.05,16.67-6.05,10.56,29.31-10.35,3.17-1.21-5.61ZM77.63,88.07l6.25-2.56.83,2.6-7.08-.03ZM89.38,96.88c-1.73,0-3.14-1.41-3.14-3.14s1.41-3.14,3.14-3.14,3.14,1.41,3.14,3.14-1.41,3.14-3.14,3.14Z"/>
    <path class="st0" d="M36.18,9.56c0,5.28-4.28,9.56-9.56,9.56s-9.56-4.28-9.56-9.56S21.34,0,26.62,0s9.56,4.28,9.56,9.56ZM33.15,9.59c0-3.59-2.91-6.5-6.5-6.5s-6.5,2.91-6.5,6.5,2.91,6.5,6.5,6.5,6.5-2.91,6.5-6.5Z"/>
  </g>
  <g>
    <circle class="st1" cx="62.59" cy="93.63" r="1.41"/>
    <circle class="st1" cx="89.41" cy="93.7" r="1.48"/>
  </g>
</svg>