<?xml version="1.0" encoding="UTF-8"?>
<svg id="Layer_1" xmlns="http://www.w3.org/2000/svg" version="1.1" viewBox="0 0 98.92 100">
  <!-- Generator: Adobe Illustrator 30.6.0, SVG Export Plug-In . SVG Version: 2.1.4 Build 109)  -->
  <defs>
    <style>
      .st0 {
        fill: #fff;
      }

      .st1 {
        fill: #101010;
      }

      .st2 {
        fill: #7DBE5E;
      }
    </style>
  </defs>
  <path class="st1" d="M86.09,98.31l.02-10.37H13.23s-.07,10.55-.07,10.55c0,.7-.67,1.5-1.33,1.5H1.7c-.48,0-1.05-.89-1.05-1.6l.04-78.08-.68-1.23L.02,1.66c0-.38.25-1.14.54-1.31S1.57,0,2.11,0h86.83s8.17.1,8.17.1c.9,0,1.81.64,1.81,1.66l-.04,17.52c-.39.69-.66,1.45-.66,2.39v76.7c.01.82-.49,1.6-1.2,1.6l-9.42.04c-.83,0-1.51-.75-1.51-1.69ZM96.93,3.13H1.85s0,14.42,0,14.42h95.08s0-14.42,0-14.42ZM3.55,19.5l-.05,77.5h6.6s.05-77.49.05-77.49H3.55ZM89.14,19.56l-.02,77.43h6.13s.02-77.43.02-77.43h-6.13ZM86.13,20.43H13.08s0,8.3,0,8.3h73.04s0-8.3,0-8.3ZM86.19,31.7H13.08s0,8.42,0,8.42h73.11s0-8.42,0-8.42ZM13.08,43.1v8.72s73.1.01,73.1.01v-8.72s-73.1-.01-73.1-.01ZM86.19,54.76H13.08v8.29h73.11v-8.29ZM86.12,65.88H13.08v8.27h73.04v-8.27ZM57.62,79.55c.31,2.16.18,3.49-.19,5.48l28.68-.04v-7.97s-72.88-.03-72.88-.03l.02,8.08h28.09c-.24-2.08-.3-3.67.24-5.51h16.05ZM44.01,82.05v3.06s10.99,0,10.99,0v-3.06s-10.99,0-10.99,0Z"/>
  <rect class="st0" x="13.08" y="31.7" width="73.11" height="8.42"/>
  <rect class="st0" x="13.08" y="54.76" width="73.11" height="8.29"/>
  <rect class="st0" x="45.27" y="10.91" width="8.72" height="73.1" transform="translate(2.16 97.09) rotate(-89.99)"/>
  <rect class="st0" x="13.08" y="65.88" width="73.04" height="8.27"/>
  <rect class="st0" x="13.08" y="20.43" width="73.04" height="8.29"/>
  <path class="st2" d="M96.93,3.13v14.4s-95.08.01-95.08.01V3.14s95.08-.01,95.08-.01ZM93.72,5.84l-88.55.05v9.76s88.55-.05,88.55-.05V5.84Z"/>
  <rect class="st0" x="-31.93" y="54.95" width="77.5" height="6.6" transform="translate(-51.44 65.03) rotate(-89.96)"/>
  <rect class="st0" x="53.48" y="55.21" width="77.43" height="6.13" transform="translate(33.9 150.46) rotate(-89.99)"/>
  <path class="st0" d="M57.62,79.55h-16.05c-.53,1.85-.48,3.44-.24,5.51H13.25s-.02-8.07-.02-8.07l72.9.03v7.97s-28.7.04-28.7.04c.37-1.98.5-3.32.19-5.48Z"/>
  <rect class="st0" x="47.98" y="78.09" width="3.06" height="11" transform="translate(-34.13 133.02) rotate(-89.95)"/>
  <rect class="st0" x="5.18" y="5.86" width="88.55" height="9.76"/>
</svg>