<?xml version="1.0" encoding="UTF-8"?>
<svg id="Layer_1" xmlns="http://www.w3.org/2000/svg" version="1.1" viewBox="0 0 96.39 100">
  <!-- Generator: Adobe Illustrator 30.6.0, SVG Export Plug-In . SVG Version: 2.1.4 Build 109)  -->
  <defs>
    <style>
      .st0 {
        fill: #fff;
      }

      .st1 {
        fill: #101010;
      }

      .st2 {
        fill: #7DBE5E;
      }
    </style>
  </defs>
  <path class="st1" d="M81.57,0c1.44,0,1.29,1.1,1.29,1.99l.05,22.99,3.83-.02V1.04c-.05-.23.58-1.05.93-1.04l8.71.14v99.77s-9.59.09-9.59.09l-.09-11.19-77.02.02-.04,11.15H.03s0-48.48,0-48.48v-8.95S0,1.37,0,1.37C0,.91.59,0,1.03,0l8.62.15.06,25h3.75S13.53.05,13.53.05L37.8.01c.67,0,1.3.68,1.24,1.29l.04,11.4,13.07-.03c.76,0,1.44.59,1.44,1.3l-.03,11.05,3.71.09.08-25.05L81.57,0ZM89.66,35.44v43.28s3.84-.01,3.84-.01l-.04-43.43c-.71-.53-1.14-1.17-1.24-1.78-.06-.4.55-1,1.17-1.32l-.05-4.09-87.13-.02-.38-2.37c.54-.49.93-1.15.94-1.84l.02-20.87h-3.91s.03,21.2.03,21.2c0,1.15.47,2.67.59,3.6-1.13,1.61-.5,3.61-.26,5.34.07.51-.33,1.72-.33,2.32v43.32s3.87-.03,3.87-.03l-.02-43.45c-.81-.49-1.21-1.43-1.07-2.11.1-.48,1.01-.91,1.84-.91h82.39c.46,0,1.01,1.25.89,1.65s-.63.95-1.15,1.51ZM16.32,3.05v22.14s19.9-.01,19.9-.01V3.04s-19.9.01-19.9.01ZM60.15,3.04v22.16s19.96,0,19.96,0V3.05s-19.96,0-19.96,0ZM92.11,26.89c.39-1.12.55-1.42,1.33-1.88l.06-21.96-3.87-.04.09,21.72,1.19,2.16h1.2ZM50.7,25.14l.05-9.57-11.7-.04-.02,9.65,11.67-.05ZM53.51,78.81h3.8s0-25.08,0-25.08h25.5s.03,25.06.03,25.06l3.93-.03v-43.68s-77.06,0-77.06,0v43.68s3.78.04,3.78.04l.03-25.07,25.46-.02.16,12.31,13.33-.06c.32,0,1.14.75,1.14,1.14l-.09,11.72ZM16.33,56.54v22.33s19.85,0,19.85,0v-22.33s-19.85,0-19.85,0ZM60.12,56.54v22.32s19.96,0,19.96,0v-22.32s-19.96,0-19.96,0ZM50.71,78.83l.02-10.11-11.68.04-.02,10.11,11.69-.03ZM93.49,81.7H2.88s0,4.18,0,4.18h90.61s0-4.18,0-4.18ZM2.88,88.77l-.02,8.38h3.92s.02-8.37.02-8.37h-3.92ZM93.5,88.79h-3.87s0,8.35,0,8.35h3.87s0-8.35,0-8.35Z"/>
  <path class="st0" d="M53.51,78.81l.09-11.72c0-.39-.82-1.15-1.14-1.14l-13.33.06-.16-12.31-25.46.02-.03,25.07-3.79-.04v-43.68s77.06,0,77.06,0v43.68s-3.92.03-3.92.03l-.03-25.07h-25.5s0,25.09,0,25.09h-3.8Z"/>
  <path class="st0" d="M89.66,35.44c.52-.56,1.03-1.11,1.15-1.51s-.43-1.65-.89-1.65H7.52c-.83,0-1.74.43-1.84.91-.15.68.25,1.62,1.07,2.11l.02,43.45-3.89.03v-43.32c.01-.6.41-1.81.34-2.32-.23-1.73-.86-3.73.26-5.34-.12-.93-.59-2.45-.59-3.6l-.03-21.19h3.91s-.02,20.87-.02,20.87c0,.68-.4,1.35-.94,1.84l.38,2.37,87.13.02.05,4.09c-.62.32-1.23.92-1.17,1.32.09.61.52,1.25,1.24,1.78l.04,43.43h-3.85s0-43.27,0-43.27Z"/>
  <rect class="st0" x="2.88" y="81.7" width="90.61" height="4.18"/>
  <polygon class="st0" points="50.71 78.83 39.03 78.86 39.05 68.75 50.73 68.72 50.71 78.83"/>
  <polygon class="st0" points="50.7 25.14 39.03 25.18 39.05 15.53 50.75 15.57 50.7 25.14"/>
  <path class="st0" d="M92.11,26.89h-1.2s-1.19-2.15-1.19-2.15l-.09-21.72,3.87.04-.06,21.96c-.78.46-.94.76-1.33,1.88Z"/>
  <rect class="st0" x=".64" y="91.01" width="8.38" height="3.92" transform="translate(-88.15 97.55) rotate(-89.85)"/>
  <rect class="st0" x="89.63" y="88.79" width="3.87" height="8.35"/>
  <g>
    <path class="st0" d="M29.24,56.54l.36,4.86c.04.4-.29,1.24-.66,1.24l-6.58.06c-.35-.34-.37-1.93.03-2.5s1.53-1.15,2.16-1.15l.87,1.09c.24.29,1.57-.12,1.57-.49v-3.1s2.25,0,2.25,0ZM23.89,73.03l.2-5.31,4.81-.25-.2-1.36c-2.24.02-4.63.13-6.51.52l-.22,8.71,7.57.02-.05-2.31-5.59-.02Z"/>
    <path class="st2" d="M29.24,56.54l.36,4.86c.04.4-.29,1.24-.66,1.24l-6.58.06c-.35-.34-.37-1.93.03-2.5s1.53-1.15,2.16-1.15l.87,1.09c.24.29,1.57-.12,1.57-.49v-3.1s9.18,0,9.18,0v22.33s-19.84,0-19.84,0v-22.33s12.91,0,12.91,0Z"/>
    <path class="st2" d="M23.89,73.03l5.59.02.05,2.31-7.57-.02.22-8.71c1.88-.4,4.27-.5,6.51-.52l.2,1.36-4.81.25-.2,5.31Z"/>
  </g>
  <g>
    <path class="st0" d="M66.83,3.05l-.12,3-.23,2.7h3.7s3.66.04,3.66.04c.63-1.21.26-2.43-.41-3.51l.08-2.23h-6.67ZM66.58,19.55h5.9s-.28-6.53-.28-6.53l2.47-.1v8.92s-7.96.04-7.96.04c-.28-.46-.28-1.54-.14-2.32Z"/>
    <path class="st2" d="M68.83,3.05l.06,3.05,2.49.07.1-3.12h8.62s0,22.16,0,22.16h-19.96s0-22.16,0-22.16h13.35s-.08,2.23-.08,2.23c.68,1.08,1.05,2.3.41,3.51l-3.66-.04h-3.7s.23-2.7.23-2.7l.12-3h2.01Z"/>
    <path class="st2" d="M66.72,21.87c-.28-.46-.28-1.54-.14-2.32h5.9s-.28-6.53-.28-6.53l2.47-.1v8.92s-7.96.04-7.96.04Z"/>
  </g>
  <g>
    <path class="st0" d="M66.79,56.54l.31,3.34c-.78.49-.99,2.73-.09,2.74l6.64.1c1.38-1.66-.56-3.34-.12-6.19h-6.75ZM66.56,73.01l5.88-.04-.06-5.36h2.35s-.05,7.74-.05,7.74l-8.06-.02-.06-2.32Z"/>
    <path class="st2" d="M68.78,56.54l.12,3.36,2.46.24-.06-3.6h8.78s0,22.33,0,22.33h-19.96s0-22.33,0-22.33h13.41c-.44,2.85,1.5,4.53.12,6.19l-6.64-.1c-.9-.01-.69-2.25.09-2.74l-.31-3.34h1.99Z"/>
    <polygon class="st2" points="66.63 75.33 66.56 73.01 72.45 72.97 72.38 67.61 74.73 67.62 74.68 75.35 66.63 75.33"/>
  </g>
  <g>
    <path class="st0" d="M29.32,3.04l.11,2.67.16,3.28h-4.01s-3.39.17-3.39.17c-.16-.77-.09-2.23.37-2.7s1.53-.8,2.31-1.02l.66.94c.2.28,1.44.07,1.47-.22v-3.12s2.32,0,2.32,0ZM22.49,21.91l7.06-.11-.2-8.71c-1.87-.5-4.18-.64-6.13.29l-.19,6.06c-.65.4-1.11.78-1.2,1.15-.08.31.34,1.33.66,1.32Z"/>
    <path class="st2" d="M29.32,3.04l.11,2.67.16,3.28h-4.01s-3.39.17-3.39.17c-.16-.77-.09-2.23.37-2.7s1.53-.8,2.31-1.02l.66.94c.2.28,1.44.07,1.47-.22v-3.12s9.21,0,9.21,0v22.14s-19.87.01-19.87.01V3.05s12.99,0,12.99,0Z"/>
    <path class="st2" d="M22.49,21.91c-.32,0-.74-1.02-.66-1.32.1-.37.55-.75,1.2-1.15l.19-6.06c1.95-.93,4.26-.78,6.13-.29l.2,8.71-7.06.11ZM27.36,19.45v-4.18c0-.49-1.17-1.17-1.58-.97-.36.17-.79.95-.8,1.39l-.1,3.73,2.49.04Z"/>
  </g>
</svg>